<svg xmlns="http://www.w3.org/2000/svg" viewBox="0 0 72 72"><defs><style>.cls-1{fill:#ca480a;}.cls-2{fill:#3c3c3c;}.cls-3{fill:#900302;}</style></defs><title>brick</title><g id="Layer_2" data-name="Layer 2"><g id="Capa_1" data-name="Capa 1"><polygon class="cls-1" points="36 0 0 0 0 9 27 9 36 0"/><polygon class="cls-1" points="45 0 45 27 54 18 54 9 72 9 72 0 45 0"/><polygon class="cls-1" points="9 36 9 63 18 54 18 45 72 45 72 36 9 36"/><polygon class="cls-2" points="36 36 45 36 72 36 72 27 45 27 45 0 36 0 36 27 9 27 0 27 0 36 0 63 0 72 72 72 72 63 9 63 9 36 36 36"/><path class="cls-3" d="M54,9v9l-9,9H72V9ZM36,0,27,9H0V27H36ZM18,54,9,63H72V45H18Z"/></g></g></svg>