<svg xmlns="http://www.w3.org/2000/svg" viewBox="0 0 99.79 101.86"><defs><style>.cls-1{fill:#a3a19f;}.cls-2{fill:#dedad7;}.cls-3{fill:#bbb3b0;}.cls-4{fill:#7c786d;}.cls-5{fill:#494744;}.cls-6{fill:#5f574c;}.cls-7{fill:#b8b5ac;}.cls-8{fill:#2c2421;}.cls-9{fill:#bcbcbc;}.cls-10{fill:#fff;opacity:0.1;}</style></defs><title>rock</title><g id="Warstwa_2" data-name="Warstwa 2"><g id="Warstwa_1-2" data-name="Warstwa 1"><path class="cls-1" d="M15.24,80.37l1.47,4.18,21.14,3s1.21,3.94,2.34,6.93L43,91.18l8.6-6.63s10.82,8.11,12,8c.61-.07,3.08,1.29,5.43,2.67.86-1,1.64-2,2.06-2.67,1.35-2.09,8.73,0,8.73,0l8.35-1.36V85l8.12-3.69,1-5.4L92.9,68.82l3.2-11.31L89.46,36.13,95.12,27l-3.44-7.38L95.12,14l-.5-4.42L89.46,4.92l-5.9,4.91H59.48L52.84,0,42.77,3.2,39.32.4h0l-1,5.5L27.77,9.83H16.71L11.55,15V27.28L2.7,30.72V21.14l1.48-9.83L6.25,8.53,4.18,11.31,2.7,21.14v9.58l3.12,5.41,9.42,1.47L11.8,45.47,2.7,41.29V58.74l6.23,1.72L11.8,70.78,1.23,65.13l3.38,11c2.25.95,4.24,1.76,4.24,1.76Z"/><polygon class="cls-2" points="21.14 0 38.83 0 39.32 0.4 38.83 0 21.14 0 8.93 4.92 6.25 8.53 8.93 4.92 21.14 0"/><polygon class="cls-2" points="2.7 21.14 2.7 30.72 11.55 27.28 11.55 14.99 16.71 9.83 27.77 9.83 38.2 7.22 39.33 0.4 39.32 0.4 38.83 0 21.14 0 8.93 4.92 6.25 8.53 4.18 11.31 2.7 21.14"/><polygon class="cls-2" points="8.93 60.46 1.23 65.13 11.8 70.78 8.93 60.46"/><polygon class="cls-3" points="15.24 37.6 5.82 36.13 2.7 41.29 11.8 45.47 15.24 37.6"/><polygon class="cls-2" points="83.56 9.83 89.46 4.92 52.84 0 59.48 9.83 83.56 9.83"/><polygon class="cls-3" points="95.12 27.04 89.46 36.13 96.1 57.51 94.63 46.7 99.79 29 95.12 14.01 91.68 19.66 95.12 27.04"/><polygon class="cls-4" points="88.23 91.18 92.94 96.08 97.33 89.71 96.34 81.35 88.23 85.04 88.23 91.18"/><path class="cls-5" d="M79.88,92.54s-7.38-2.09-8.73,0c-.42.65-1.2,1.63-2.06,2.67,2.39,1.42,4.64,2.86,4.64,2.86l1.74,3.69c2.19.23,4.67.14,6.37-1a28.92,28.92,0,0,1,7.38-3.1l-1-6.49Z"/><path class="cls-6" d="M89.22,97.67c1.83-.54,3.19-.83,3.19-.83l.53-.76-4.71-4.9Z"/><path class="cls-5" d="M37.85,87.5l-21.14-3L13,96.94l15.3,3.83s7.87-5.16,9.59-4.67a6.49,6.49,0,0,1,.69.24l1.65-1.91C39.06,91.44,37.85,87.5,37.85,87.5Z"/><path class="cls-2" d="M0,86.51l6.42,8.57C10.61,91,16.71,84.55,16.71,84.55l-1.47-4.18L8.85,77.91s-2-.81-4.24-1.76l.47,1.52Z"/><path class="cls-7" d="M6.42,95.08l.22.28L13,96.94l3.75-12.39S10.61,91,6.42,95.08Z"/><path class="cls-5" d="M63.66,92.54c-1.23.12-12-8-12-8L43,91.18l-2.82,3.25c.66,1.73,1.29,3.14,1.65,3.31,2,.89,3.87,1.8,3.87,1.8l12.54,1.23,3.44-4.18,4.45,2c.83-.93,2-2.21,3-3.42C66.74,93.83,64.27,92.47,63.66,92.54Z"/><path class="cls-8" d="M69.09,95.21c-1,1.21-2.12,2.49-3,3.42l4.64,2.14a25.54,25.54,0,0,0,4.69,1l-1.74-3.69S71.48,96.63,69.09,95.21Z"/><path class="cls-8" d="M40.19,94.43l-1.65,1.91c.86.32,2.1.86,3.3,1.4C41.48,97.57,40.85,96.16,40.19,94.43Z"/><path class="cls-9" d="M39.09,1.71c-.14,1.46-.37,3-.51,4.38v.55a1.67,1.67,0,0,1-.09.66.6.6,0,0,1-.43.3l-.33,0h-.58a4.16,4.16,0,0,0-1.06,0q-.56.06-1.08.15a7.38,7.38,0,0,0-2,.61,8.88,8.88,0,0,0-.9.5c-.31.2-.51.4-.94.66a10.41,10.41,0,0,1-2.21.77c-.37.08-.67.2-1.14.28a6.37,6.37,0,0,1-1.23,0c-2.94-.32-5.87-.49-8.78-.55a2.81,2.81,0,0,0-.94.16,4.43,4.43,0,0,0-.89.51,8.9,8.9,0,0,0-1.52,1.49c-.94,1.11-1.73,2.38-2.66,3.53.73-1.29,1.4-2.6,2.24-3.86a8.15,8.15,0,0,1,1.51-1.72,5.45,5.45,0,0,1,1-.67,3.33,3.33,0,0,1,1.21-.31,53,53,0,0,1,8.92.26,5.39,5.39,0,0,0,1,0c.27,0,.67-.16,1-.24a11.63,11.63,0,0,0,2-.62c.22-.11.58-.39.9-.58a8.06,8.06,0,0,1,1.06-.53A8.71,8.71,0,0,1,34.91,7L36,7a7.33,7.33,0,0,1,1.15,0l.53,0h.22c.08,0,.07,0,0,0A1.64,1.64,0,0,0,38,6.62l0-.55C38.38,4.55,38.72,3.16,39.09,1.71Z"/><path class="cls-9" d="M54.2,2q2.13,2.76,4.06,5.61l.49.71a3.19,3.19,0,0,0,.46.59.77.77,0,0,0,.5.19c.22,0,.53,0,.81,0L64,9.2c4.61.13,9.21.22,13.83.55A94.32,94.32,0,0,1,64,10.37c-1.16,0-2.31-.08-3.47-.14-.29,0-.56,0-.91-.07a1.83,1.83,0,0,1-1.06-.5,3.29,3.29,0,0,1-.57-.79l-.43-.75C56.34,6.12,55.23,4.08,54.2,2Z"/><path class="cls-9" d="M11.72,28.84a12.77,12.77,0,0,0,2,3.28,7.31,7.31,0,0,1,1.63,3.54,7.83,7.83,0,0,1-.81,3.86C14,40.71,13.38,41.84,13,43c-.84,2.34-.63,4.91-.67,7.49a16.13,16.13,0,0,1-.47,3.94A8.22,8.22,0,0,1,11,56.34,17.83,17.83,0,0,1,9.9,58a3.73,3.73,0,0,0-.38,3.24A23.91,23.91,0,0,0,11,64.67a13.64,13.64,0,0,1,1.12,3.84,5.59,5.59,0,0,1-.94,4.06A13.69,13.69,0,0,0,10,74a.87.87,0,0,0,.18,1.14c.36.35,1,.73,1.47,1.16a15.43,15.43,0,0,1,1.44,1.36A16.6,16.6,0,0,1,17,84.47l-.35-.29,8.58,1.06c2.86.39,5.72.75,8.57,1.16-2.88-.18-5.75-.43-8.62-.65L16.6,85l-.26,0-.09-.26a16.87,16.87,0,0,0-3.87-6.33A14.93,14.93,0,0,0,11,77.12c-.47-.42-1-.69-1.55-1.22a1.89,1.89,0,0,1-.39-2.37,12.41,12.41,0,0,1,1.19-1.62,4.44,4.44,0,0,0,.7-3.27,14.49,14.49,0,0,0-1.06-3.52,24.56,24.56,0,0,1-1.45-3.65,6.34,6.34,0,0,1-.19-2.1,4.1,4.1,0,0,1,.77-2,16.75,16.75,0,0,0,1.1-1.53,7.26,7.26,0,0,0,.71-1.64,15.92,15.92,0,0,0,.48-3.68c.09-2.52,0-5.22.95-7.74.49-1.23,1.14-2.35,1.68-3.49a7.84,7.84,0,0,0,.93-3.56C14.76,33.15,12.34,31.36,11.72,28.84Z"/><path class="cls-10" d="M31.13,16.62S16.06,22,25,31.86s-.71,23.29,1.63,28.6,4.06,14.11,21.26,10.32S67,56.44,75.47,52s10.22,1.23,8.5-8.85-2-11.55,1.72-17,4.92-10.07-3-9.58S67,29.65,57.92,24,36.18,13.85,31.13,16.62Z"/><path class="cls-10" d="M79.15,58.65s-12.38,0-6,5.16S81.51,68.67,84,65.62s5.33-.89,4.26-5.16S79.15,58.65,79.15,58.65Z"/><path class="cls-10" d="M69.09,73.39c4.8,1.72,5,5.66,5,5.66s-4.67,1.47-7.13,0-3.93-2.22-2.7-4.43S69.09,73.39,69.09,73.39Z"/><path class="cls-4" d="M18.82,67.42c.73,2.7.76,5.41,3,4.92s4.66-1.29,4.9-3.84-.07-4.33-2.74-5.16S18.82,67.42,18.82,67.42Z"/><path class="cls-4" d="M46.86,12.65c.46,1.7.48,3.4,1.86,3.09s2.92-.81,3.08-2.41,0-2.72-1.72-3.24S46.86,12.65,46.86,12.65Z"/></g></g></svg>