<svg xmlns="http://www.w3.org/2000/svg" viewBox="0 0 126 117"><defs><style>.cls-1{fill:#ff4545;}.cls-2{fill:#c40404;}.cls-3{fill:#fca4a4;}</style></defs><title>tank</title><g id="Layer_2" data-name="Layer 2"><g id="Capa_1" data-name="Capa 1"><path class="cls-1" d="M99,45H90a30.74,30.74,0,0,0-21.73-9H57.73A30.74,30.74,0,0,0,36,45H27V99H99Z"/><polygon class="cls-2" points="72 63 76.5 58.5 81 63 81 81 72 90 54 90 49.67 85.67 54 81 72 81 72 63"/><rect class="cls-1" x="54" y="63" width="18" height="18"/><rect class="cls-3" x="58.5" width="9" height="45"/><rect class="cls-1" x="58.5" width="9" height="9"/><polygon class="cls-3" points="45 81 45 63 54 54 72 54 76.5 58.5 72 63 54 63 54 81 49.67 85.67 45 81"/><path class="cls-2" d="M68.27,108H57.73A30.74,30.74,0,0,1,36,99H90A30.74,30.74,0,0,1,68.27,108Z"/><rect class="cls-1" x="99" y="27" width="27" height="90"/><rect class="cls-2" x="99" y="27" width="27" height="9"/><rect class="cls-2" x="108" y="45" width="18" height="9"/><rect class="cls-2" x="108" y="63" width="18" height="9"/><rect class="cls-2" x="108" y="81" width="18" height="9"/><rect class="cls-2" x="108" y="99" width="18" height="9"/><rect class="cls-3" y="27" width="27" height="90"/><rect class="cls-2" y="27" width="27" height="9"/><rect class="cls-2" x="18" y="36" width="9" height="81"/><rect class="cls-2" y="45" width="18" height="9"/><rect class="cls-2" y="63" width="18" height="9"/><rect class="cls-2" y="81" width="18" height="9"/><rect class="cls-2" y="99" width="18" height="9"/><rect class="cls-2" x="99" y="36" width="9" height="81"/><rect class="cls-2" x="90" y="45" width="9" height="54"/><rect class="cls-3" x="27" y="45" width="9" height="54"/></g></g></svg>